<svg width="700" height="420" xmlns="http://www.w3.org/2000/svg">
  <!-- Background -->
  <rect width="100%" height="100%" rx="12" fill="#1e1e2e"/>
  
  <!-- Window dots -->
  <circle cx="24" cy="18" r="6" fill="#ff5f57"/>
  <circle cx="44" cy="18" r="6" fill="#febc2e"/>
  <circle cx="64" cy="18" r="6" fill="#28c840"/>
  <text x="350" y="22" font-family="monospace" font-size="13" text-anchor="middle" fill="#6c7086">script.js</text>
  
  <!-- Line numbers column -->
  <rect x="0" y="36" width="40" height="384" fill="#181825" rx="0"/>
  
  <!-- Code content -->
  <style>
    .ln { font-family: 'Courier New', monospace; font-size: 13px; fill: #6c7086; }
    .kw { font-family: 'Courier New', monospace; font-size: 14px; fill: #cba6f7; }
    .fn { font-family: 'Courier New', monospace; font-size: 14px; fill: #89b4fa; }
    .str { font-family: 'Courier New', monospace; font-size: 14px; fill: #a6e3a1; }
    .num { font-family: 'Courier New', monospace; font-size: 14px; fill: #fab387; }
    .cm { font-family: 'Courier New', monospace; font-size: 14px; fill: #6c7086; }
    .id { font-family: 'Courier New', monospace; font-size: 14px; fill: #cdd6f4; }
    .op { font-family: 'Courier New', monospace; font-size: 14px; fill: #89dceb; }
    .call { font-family: 'Courier New', monospace; font-size: 14px; fill: #f9e2af; }
  </style>
  
  <!-- Line 1 -->
  <text x="28" y="62" class="ln" text-anchor="end">1</text>
  <text x="52" y="62" class="kw">let</text>
  <text x="78" y="62" class="id">x = </text>
  <text x="104" y="62" class="num">10</text>
  <text x="120" y="62" class="id">;</text>
  
  <!-- Line 2 (blank) -->
  <text x="28" y="82" class="ln" text-anchor="end">2</text>
  
  <!-- Line 3 -->
  <text x="28" y="102" class="ln" text-anchor="end">3</text>
  <text x="52" y="102" class="kw">function</text>
  <text x="122" y="102" class="fn">outer</text>
  <text x="162" y="102" class="id">() {</text>
  
  <!-- Line 4 -->
  <text x="28" y="122" class="ln" text-anchor="end">4</text>
  <text x="72" y="122" class="kw">let</text>
  <text x="98" y="122" class="id">x = </text>
  <text x="124" y="122" class="num">20</text>
  <text x="140" y="122" class="id">;</text>
  
  <!-- Line 5 (blank) -->
  <text x="28" y="142" class="ln" text-anchor="end">5</text>
  
  <!-- Line 6 -->
  <text x="28" y="162" class="ln" text-anchor="end">6</text>
  <text x="72" y="162" class="kw">function</text>
  <text x="142" y="162" class="fn">inner</text>
  <text x="182" y="162" class="id">() {</text>
  
  <!-- Line 7 -->
  <text x="28" y="182" class="ln" text-anchor="end">7</text>
  <text x="92" y="182" class="kw">let</text>
  <text x="118" y="182" class="id">x = </text>
  <text x="144" y="182" class="num">30</text>
  <text x="160" y="182" class="id">;</text>
  
  <!-- Line 8 - console.log A -->
  <text x="28" y="202" class="ln" text-anchor="end">8</text>
  <text x="92" y="202" class="call">console</text>
  <text x="152" y="202" class="id">.</text>
  <text x="158" y="202" class="fn">log</text>
  <text x="184" y="202" class="id">(</text>
  <text x="192" y="202" class="str">"A:"</text>
  <text x="224" y="202" class="id">, x);</text>
  
  <!-- Marker A -->
  <rect x="465" y="188" width="30" height="22" rx="4" fill="#f38ba8" opacity="0.9"/>
  <text x="480" y="204" font-family="monospace" font-size="13" text-anchor="middle" fill="#1e1e2e" font-weight="bold">A</text>
  
  <!-- Line 9 -->
  <text x="28" y="222" class="ln" text-anchor="end">9</text>
  <text x="72" y="222" class="id">}</text>
  
  <!-- Line 10 (blank) -->
  <text x="28" y="242" class="ln" text-anchor="end">10</text>
  
  <!-- Line 11 -->
  <text x="28" y="262" class="ln" text-anchor="end">11</text>
  <text x="72" y="262" class="fn">inner</text>
  <text x="112" y="262" class="id">();</text>
  
  <!-- Line 12 - console.log B -->
  <text x="28" y="282" class="ln" text-anchor="end">12</text>
  <text x="72" y="282" class="call">console</text>
  <text x="132" y="282" class="id">.</text>
  <text x="138" y="282" class="fn">log</text>
  <text x="164" y="282" class="id">(</text>
  <text x="172" y="282" class="str">"B:"</text>
  <text x="204" y="282" class="id">, x);</text>
  
  <!-- Marker B -->
  <rect x="465" y="268" width="30" height="22" rx="4" fill="#a6e3a1" opacity="0.9"/>
  <text x="480" y="284" font-family="monospace" font-size="13" text-anchor="middle" fill="#1e1e2e" font-weight="bold">B</text>
  
  <!-- Line 13 -->
  <text x="28" y="302" class="ln" text-anchor="end">13</text>
  <text x="52" y="302" class="id">}</text>
  
  <!-- Line 14 (blank) -->
  <text x="28" y="322" class="ln" text-anchor="end">14</text>
  
  <!-- Line 15 -->
  <text x="28" y="342" class="ln" text-anchor="end">15</text>
  <text x="52" y="342" class="fn">outer</text>
  <text x="92" y="342" class="id">();</text>
  
  <!-- Line 16 - console.log C -->
  <text x="28" y="362" class="ln" text-anchor="end">16</text>
  <text x="52" y="362" class="call">console</text>
  <text x="112" y="362" class="id">.</text>
  <text x="118" y="362" class="fn">log</text>
  <text x="144" y="362" class="id">(</text>
  <text x="152" y="362" class="str">"C:"</text>
  <text x="184" y="362" class="id">, x);</text>
  
  <!-- Marker C -->
  <rect x="465" y="348" width="30" height="22" rx="4" fill="#89b4fa" opacity="0.9"/>
  <text x="480" y="364" font-family="monospace" font-size="13" text-anchor="middle" fill="#1e1e2e" font-weight="bold">C</text>
</svg>
